<svg width="154" height="38" viewBox="0 0 154 38" fill="none" xmlns="http://www.w3.org/2000/svg">
<g clip-path="url(#clip0_1_9)">
<path fill-rule="evenodd" clip-rule="evenodd" d="M24.2779 11.101C22.7156 10.0572 20.8789 9.5 19 9.5V0C22.7578 0 26.4313 1.11433 29.5558 3.20208C32.6804 5.28982 35.1156 8.25722 36.5537 11.729C37.9917 15.2008 38.368 19.0211 37.6349 22.7067C36.9018 26.3923 35.0922 29.7778 32.435 32.435C29.7778 35.0922 26.3923 36.9018 22.7067 37.6349C19.0211 38.368 15.2008 37.9917 11.729 36.5537C8.25721 35.1156 5.28982 32.6804 3.20208 29.5558C1.11433 26.4313 0 22.7578 0 19H9.5C9.5 20.8789 10.0572 22.7156 11.101 24.2779C12.1449 25.8402 13.6286 27.0578 15.3645 27.7769C17.1004 28.4959 19.0105 28.684 20.8534 28.3174C22.6962 27.9509 24.3889 27.0461 25.7175 25.7175C27.0461 24.3889 27.9509 22.6962 28.3174 20.8534C28.684 19.0105 28.4959 17.1004 27.7769 15.3645C27.0578 13.6286 25.8402 12.1449 24.2779 11.101Z" fill="#007DFC"/>
<path fill-rule="evenodd" clip-rule="evenodd" d="M9.49999 5.02068e-06C9.49999 1.24756 9.25428 2.4829 8.77685 3.6355C8.29943 4.78809 7.59967 5.83536 6.71751 6.71752C5.83536 7.59968 4.78809 8.29944 3.63549 8.77686C2.4829 9.25428 1.24755 9.5 4.15254e-07 9.5L0 19C2.49511 19 4.9658 18.5086 7.27099 17.5537C9.57618 16.5989 11.6707 15.1993 13.435 13.435C15.1993 11.6708 16.5989 9.57619 17.5537 7.27099C18.5086 4.9658 19 2.49511 19 0L9.49999 5.02068e-06Z" fill="#007DFC"/>
<path d="M43.488 27V10.152H48.336L53.064 21.816L57.744 10.152H62.568V27H58.464V16.896L54.696 27H51.384L47.592 16.872V27H43.488ZM64.2233 20.28C64.2233 16.056 66.8393 13.416 70.1273 13.416C72.1193 13.416 73.5353 14.328 74.2553 15.504V13.608H78.3593V27H74.2553V25.104C73.5113 26.28 72.0953 27.192 70.1033 27.192C66.8393 27.192 64.2233 24.504 64.2233 20.28ZM74.2553 20.304C74.2553 18.168 72.8873 16.992 71.3273 16.992C69.7913 16.992 68.3993 18.144 68.3993 20.28C68.3993 22.416 69.7913 23.616 71.3273 23.616C72.8873 23.616 74.2553 22.44 74.2553 20.304ZM91.7203 23.112C91.7203 25.44 89.6563 27.192 86.2963 27.192C82.7203 27.192 80.3203 25.2 80.1283 22.608H84.1843C84.2803 23.544 85.1203 24.168 86.2483 24.168C87.3043 24.168 87.8563 23.688 87.8563 23.088C87.8563 20.928 80.5603 22.488 80.5603 17.568C80.5603 15.288 82.5043 13.416 86.0083 13.416C89.4643 13.416 91.3843 15.336 91.6483 17.976H87.8563C87.7363 17.064 87.0403 16.464 85.8883 16.464C84.9283 16.464 84.4003 16.848 84.4003 17.496C84.4003 19.632 91.6483 18.12 91.7203 23.112ZM92.8391 13.44V10.152H105.871V13.44H101.407V27H97.3031V13.44H92.8391ZM120.555 20.304C120.555 24.552 117.483 27.192 113.547 27.192C109.611 27.192 106.635 24.552 106.635 20.304C106.635 16.056 109.683 13.416 113.595 13.416C117.531 13.416 120.555 16.056 120.555 20.304ZM110.811 20.304C110.811 22.56 112.059 23.64 113.547 23.64C115.011 23.64 116.379 22.56 116.379 20.304C116.379 18.024 115.035 16.968 113.595 16.968C112.107 16.968 110.811 18.024 110.811 20.304ZM128.564 10.152C133.94 10.152 137.396 13.56 137.396 18.576C137.396 23.568 133.94 27 128.564 27H122.252V10.152H128.564ZM126.356 23.448H128.3C131.396 23.448 133.22 21.672 133.22 18.576C133.22 15.48 131.396 13.656 128.3 13.656H126.356V23.448ZM152.314 20.304C152.314 24.552 149.242 27.192 145.306 27.192C141.37 27.192 138.394 24.552 138.394 20.304C138.394 16.056 141.442 13.416 145.354 13.416C149.29 13.416 152.314 16.056 152.314 20.304ZM142.57 20.304C142.57 22.56 143.818 23.64 145.306 23.64C146.77 23.64 148.138 22.56 148.138 20.304C148.138 18.024 146.794 16.968 145.354 16.968C143.866 16.968 142.57 18.024 142.57 20.304Z" fill="#007DFC"/>
</g>
<defs>
<clipPath id="clip0_1_9">
<rect width="154" height="38" fill="white"/>
</clipPath>
</defs>
</svg>
