<svg width="450" height="301" viewBox="0 0 450 301" fill="none" xmlns="http://www.w3.org/2000/svg">
<path d="M400.17 90.6619L394.428 118.472L390.732 114.866L384.444 119.354L379.638 113.384L368.862 121.22L359.652 105.818L349.38 111.836L345.306 106.22L332.262 113.57L328.338 105.164L337.482 60.8779L386.502 70.9999L400.17 90.6619Z" fill="#EBEBEB"/>
<path d="M386.502 71L400.17 90.662L383.166 87.152L386.502 71Z" fill="#DBDBDB"/>
<path d="M393.204 124.028L384.786 164.828L318.756 151.196L327.114 110.726L331.038 119.126L344.088 111.776L348.156 117.392L358.434 111.38L367.638 126.782L378.42 118.946L383.22 124.91L389.514 120.428L393.204 124.028Z" fill="#EBEBEB"/>
<path d="M298.698 119.246L231.408 123.41L226.062 37.034L276.03 33.938L294.372 49.328L298.698 119.246Z" fill="#EBEBEB"/>
<path d="M276.03 33.938L294.372 49.328L277.044 50.402L276.03 33.938Z" fill="#DBDBDB"/>
<path d="M257.4 92.0601L257.136 90.1101C256.458 86.0721 257.562 81.5541 261.072 76.8321C264.24 72.6321 265.956 69.6321 265.764 66.2241C265.548 62.3841 262.998 59.9601 258.252 60.1521C255.54 60.2929 252.934 61.2555 250.782 62.9121L248.712 58.2741C251.112 56.3241 255.312 54.8841 259.302 54.6741C267.96 54.1941 272.172 59.3181 272.502 65.0361C272.79 70.1541 270.138 74.0001 266.766 78.4941C263.67 82.5921 262.656 85.9701 263.094 89.7921L263.28 91.7481L257.4 92.0601ZM256.332 102.686C256.176 99.9021 257.946 97.8381 260.58 97.6941C263.214 97.5501 265.134 99.3981 265.29 102.188C265.434 104.822 263.82 106.946 261.036 107.102C258.378 107.252 256.458 105.32 256.308 102.686H256.332Z" fill="#DBDBDB"/>
<path d="M89.088 77.366L82.32 74.3L81.378 76.37C81.2389 76.6659 81.0219 76.9182 80.7502 77.1C80.4786 77.2819 80.1625 77.3863 79.836 77.402C79.4641 77.4142 79.0933 77.4503 78.726 77.5101C78.4036 77.5579 78.0742 77.5174 77.7731 77.3927C77.4719 77.268 77.2102 77.0638 77.016 76.802L75.69 74.948L69.648 79.2801L70.974 81.134C71.1585 81.4016 71.267 81.7142 71.2881 82.0385C71.3092 82.3628 71.2422 82.6868 71.094 82.9761C70.923 83.306 70.7688 83.6444 70.632 83.99C70.5132 84.2948 70.3135 84.5614 70.0545 84.7612C69.7955 84.961 69.487 85.0864 69.162 85.124L66.9 85.3461L67.626 92.7441L69.9 92.5161C70.2261 92.49 70.5532 92.5533 70.846 92.6992C71.1389 92.8451 71.3864 93.068 71.562 93.3441C71.658 93.5001 71.76 93.65 71.868 93.8C71.976 93.9501 72.084 94.094 72.198 94.238C72.4051 94.49 72.5382 94.7944 72.5827 95.1174C72.6272 95.4405 72.5813 95.7695 72.45 96.068L71.502 98.156L78.276 101.228L79.218 99.1461C79.3584 98.8505 79.5767 98.5988 79.8495 98.418C80.1222 98.2372 80.4391 98.1342 80.766 98.12C81.1338 98.1049 81.5004 98.0688 81.864 98.0121C82.1864 97.9642 82.5158 98.0047 82.817 98.1294C83.1182 98.2541 83.3798 98.4583 83.574 98.72L84.9 100.574L90.948 96.2421L89.622 94.388C89.4319 94.1229 89.3199 93.8098 89.2987 93.4842C89.2775 93.1586 89.3479 92.8336 89.502 92.5461C89.6692 92.218 89.8194 91.8815 89.952 91.538C90.0674 91.2311 90.2661 90.9623 90.5258 90.762C90.7854 90.5617 91.0958 90.4377 91.422 90.404L93.696 90.1761L92.964 82.7781L90.69 83C90.3659 83.0285 90.0403 82.9668 89.7491 82.8217C89.4579 82.6767 89.2125 82.4539 89.04 82.1781C88.938 82.0221 88.836 81.872 88.728 81.722C88.62 81.572 88.512 81.422 88.398 81.284C88.1924 81.029 88.0602 80.7227 88.0158 80.3981C87.9714 80.0735 88.0164 79.7429 88.146 79.4421L89.088 77.366ZM85.248 84.2121C85.9497 85.1912 86.3452 86.3564 86.3846 87.5603C86.4239 88.7642 86.1054 89.9528 85.4692 90.9757C84.833 91.9986 83.9078 92.8098 82.8106 93.3068C81.7133 93.8038 80.4933 93.9643 79.3049 93.7679C78.1164 93.5715 77.0129 93.0271 76.1339 92.2035C75.2549 91.3799 74.6398 90.3141 74.3666 89.1409C74.0933 87.9677 74.1741 86.7399 74.5987 85.6126C75.0233 84.4854 75.7727 83.5094 76.752 82.808C78.0649 81.8678 79.6975 81.4876 81.2907 81.7509C82.884 82.0141 84.3074 82.8994 85.248 84.2121Z" fill="#EBEBEB"/>
<path d="M395.028 175.526L390.516 178.13L391.314 179.51C391.433 179.708 391.492 179.936 391.485 180.167C391.478 180.398 391.404 180.622 391.272 180.812C391.134 181.028 391.002 181.25 390.882 181.484C390.783 181.691 390.628 181.865 390.433 181.986C390.238 182.108 390.013 182.171 389.784 182.168H388.2V187.382H389.796C390.025 187.379 390.25 187.442 390.445 187.563C390.64 187.684 390.795 187.859 390.894 188.066C391.014 188.3 391.146 188.522 391.284 188.738C391.416 188.928 391.49 189.152 391.497 189.383C391.504 189.614 391.445 189.842 391.326 190.04L390.528 191.42L395.04 194.024L395.844 192.638C395.96 192.441 396.129 192.281 396.332 192.175C396.534 192.069 396.762 192.022 396.99 192.038H397.758C397.986 192.022 398.213 192.07 398.416 192.176C398.618 192.282 398.787 192.442 398.904 192.638L399.708 194.03L404.214 191.426L403.416 190.04C403.302 189.841 403.247 189.614 403.255 189.385C403.264 189.156 403.336 188.934 403.464 188.744C403.602 188.528 403.734 188.3 403.854 188.072C403.953 187.865 404.108 187.69 404.303 187.569C404.497 187.448 404.723 187.385 404.952 187.388H406.548V182.174H404.94C404.711 182.177 404.485 182.114 404.291 181.993C404.096 181.871 403.941 181.697 403.842 181.49C403.722 181.262 403.59 181.034 403.452 180.818C403.324 180.628 403.252 180.406 403.243 180.177C403.235 179.948 403.29 179.721 403.404 179.522L404.202 178.136L399.696 175.532L398.892 176.9C398.776 177.096 398.607 177.257 398.404 177.363C398.202 177.469 397.974 177.516 397.746 177.5H397.362H396.978C396.749 177.515 396.521 177.467 396.318 177.362C396.115 177.256 395.944 177.096 395.826 176.9L395.028 175.526ZM397.362 180.506C398.207 180.505 399.034 180.754 399.738 181.223C400.441 181.692 400.99 182.359 401.314 183.14C401.638 183.921 401.723 184.781 401.558 185.61C401.394 186.439 400.987 187.201 400.389 187.799C399.791 188.396 399.029 188.803 398.2 188.968C397.371 189.133 396.511 189.048 395.73 188.724C394.949 188.399 394.282 187.851 393.813 187.148C393.344 186.444 393.095 185.617 393.096 184.772C393.095 184.211 393.205 183.656 393.419 183.138C393.633 182.619 393.947 182.148 394.343 181.751C394.74 181.355 395.21 181.04 395.728 180.825C396.246 180.61 396.801 180.5 397.362 180.5V180.506Z" fill="#EBEBEB"/>
<path d="M102.78 55.196L98.646 58.364L99.6 59.63C99.7423 59.8104 99.8298 60.0278 99.8522 60.2565C99.8745 60.4852 99.8307 60.7155 99.726 60.92C99.6112 61.1535 99.511 61.394 99.426 61.64C99.3521 61.8567 99.2191 62.0484 99.0421 62.1937C98.8651 62.3389 98.651 62.4318 98.424 62.462L96.84 62.666L97.512 67.832L99.096 67.628C99.3266 67.5958 99.5616 67.6295 99.7739 67.725C99.9862 67.8205 100.167 67.9741 100.296 68.168C100.441 68.3767 100.597 68.577 100.764 68.768C100.919 68.938 101.021 69.1488 101.059 69.3753C101.098 69.6019 101.07 69.8346 100.98 70.046L100.38 71.522L105.18 73.52L105.78 72.044C105.869 71.8322 106.016 71.6497 106.204 71.5172C106.392 71.3846 106.613 71.3073 106.842 71.294L107.226 71.252L107.604 71.192C107.826 71.1501 108.055 71.17 108.267 71.2493C108.478 71.3286 108.664 71.4644 108.804 71.642L109.782 72.92L113.916 69.752L112.95 68.486C112.811 68.3031 112.725 68.0849 112.703 67.8559C112.68 67.627 112.722 67.3963 112.824 67.19C112.938 66.958 113.038 66.7196 113.124 66.476C113.198 66.2593 113.331 66.0675 113.508 65.9223C113.685 65.7771 113.899 65.6841 114.126 65.654L115.71 65.45L115.038 60.284L113.454 60.488C113.224 60.5207 112.989 60.488 112.777 60.3936C112.565 60.2991 112.384 60.1468 112.254 59.954C112.104 59.738 111.948 59.534 111.78 59.354C111.64 59.1803 111.55 58.9723 111.518 58.7517C111.486 58.531 111.515 58.3059 111.6 58.1L112.2 56.624L107.4 54.626L106.8 56.102C106.71 56.3129 106.562 56.4946 106.375 56.627C106.188 56.7594 105.967 56.8373 105.738 56.852L105.354 56.888L105 56.9C104.778 56.9418 104.549 56.922 104.337 56.8427C104.126 56.7633 103.94 56.6275 103.8 56.45L102.78 55.196ZM105.738 59.834C106.574 59.7265 107.423 59.869 108.178 60.2435C108.933 60.6179 109.56 61.2076 109.98 61.938C110.4 62.6684 110.594 63.507 110.539 64.3478C110.483 65.1886 110.179 65.994 109.666 66.6625C109.153 67.331 108.454 67.8325 107.656 68.1039C106.858 68.3753 105.998 68.4043 105.183 68.1873C104.369 67.9703 103.637 67.517 103.08 66.8847C102.524 66.2523 102.166 65.4691 102.054 64.634C101.979 64.0767 102.015 63.51 102.16 62.9667C102.305 62.4233 102.555 61.9139 102.898 61.4678C103.24 61.0217 103.667 60.6477 104.155 60.3673C104.642 60.0869 105.18 59.9057 105.738 59.834Z" fill="#EBEBEB"/>
<path d="M71.892 190.568C72.1174 184.768 72.0373 178.96 71.652 173.168C70.7935 161.208 68.9696 149.338 66.198 137.672C64.674 131.108 62.802 124.652 60.846 118.202C60.786 118.004 60.474 118.058 60.528 118.262C66.57 141.002 71.526 164.462 71.184 188.102C71.088 194.702 70.32 201.212 69.696 207.788C69.696 207.962 69.966 208.034 70.008 207.854C71.25 202.208 71.658 196.316 71.892 190.568Z" fill="#EBEBEB"/>
<path d="M60.528 118.244C60.528 118.244 51.384 141.464 53.43 146.9C55.476 152.336 59.7 153.5 59.7 153.5C59.7 153.5 54.102 161.492 58.014 168.986C61.926 176.48 70.614 176.126 71.214 184.622C71.196 184.664 71.676 149.138 60.528 118.244Z" fill="#EBEBEB"/>
<path d="M70.2 169.994C70.2148 169.955 70.2148 169.913 70.2 169.874C68.9999 154.021 66.0253 138.353 61.332 123.164C61.332 123.122 61.242 123.134 61.254 123.164C63.066 129.964 64.666 136.792 66.054 143.648C64.8247 142.483 63.3228 141.646 61.686 141.212C61.686 141.212 61.638 141.248 61.686 141.26C63.4056 141.89 64.9517 142.918 66.198 144.26C66.462 145.61 66.726 146.954 66.972 148.304C64.926 146.018 62.094 144.884 59.256 143.804C59.2496 143.807 59.2441 143.811 59.2403 143.817C59.2364 143.823 59.2344 143.83 59.2344 143.837C59.2344 143.844 59.2364 143.851 59.2403 143.857C59.2441 143.862 59.2496 143.867 59.256 143.87C62.214 145.07 65.154 146.618 67.158 149.168C67.854 153.02 68.466 156.886 68.994 160.766C67.5167 159.218 65.6221 158.132 63.54 157.64C63.474 157.64 63.438 157.718 63.504 157.736C65.6428 158.366 67.5524 159.604 69 161.3H69.036C69.216 162.66 69.388 164.026 69.552 165.398C68.4092 164.431 67.1188 163.653 65.73 163.094C65.694 163.094 65.67 163.136 65.73 163.148C67.1473 163.762 68.4452 164.621 69.564 165.686C69.564 165.686 69.594 165.686 69.612 165.686C69.762 166.988 69.912 168.29 70.044 169.592C67.9837 167.101 65.3098 165.19 62.286 164.048C62.2733 164.048 62.2611 164.053 62.252 164.062C62.243 164.071 62.238 164.083 62.238 164.096C62.238 164.109 62.243 164.121 62.252 164.13C62.2611 164.139 62.2733 164.144 62.286 164.144C65.2718 165.46 67.8946 167.48 69.93 170.03C69.9524 170.058 69.9826 170.079 70.0168 170.089C70.051 170.1 70.0877 170.1 70.122 170.09C70.32 172.088 70.5 174.086 70.644 176.09C70.644 176.12 70.692 176.12 70.692 176.09C70.536 174.078 70.372 172.046 70.2 169.994Z" fill="white"/>
<path d="M62.85 138.926C61.194 137.895 59.3022 137.305 57.354 137.21C57.3444 137.21 57.3353 137.214 57.3285 137.22C57.3218 137.227 57.318 137.236 57.318 137.246C57.318 137.256 57.3218 137.265 57.3285 137.271C57.3353 137.278 57.3444 137.282 57.354 137.282C59.2376 137.639 61.0655 138.244 62.79 139.082C62.862 139.1 62.916 138.974 62.85 138.926Z" fill="white"/>
<path d="M63.96 163.508C62.6872 162.777 61.2857 162.299 59.832 162.098C59.784 162.098 59.778 162.164 59.832 162.176C61.2516 162.461 62.6247 162.941 63.912 163.604C63.966 163.634 64.014 163.538 63.96 163.508Z" fill="white"/>
<path d="M95.94 147.302C92.0717 149.976 88.519 153.08 85.35 156.554C82.0818 160.233 79.5609 164.512 77.928 169.154C74.4527 178.825 72.584 188.999 72.396 199.274C72.2795 204.964 72.8251 210.648 74.022 216.212C74.0317 216.253 74.0566 216.288 74.0915 216.31C74.1264 216.333 74.1687 216.341 74.2096 216.333C74.2504 216.326 74.2868 216.303 74.3111 216.269C74.3353 216.235 74.3457 216.193 74.34 216.152C72.8507 206.334 72.9073 196.343 74.508 186.542C76.08 176.942 78.546 166.49 84.654 158.684C87.978 154.43 92.124 151.088 96.222 147.632C96.438 147.44 96.162 147.146 95.94 147.302Z" fill="#EBEBEB"/>
<path d="M73.74 192.35C75.9419 188.789 78.5295 185.481 81.456 182.486C86.034 177.908 89.886 174.656 90.486 171.632C91.086 168.608 85.902 166.376 85.902 166.376C85.902 166.376 92.232 167.516 93.966 164.858C95.7 162.2 96.534 146.804 96.534 146.804C96.534 146.804 85.014 155.03 79.644 166.562C74.274 178.094 73.74 192.35 73.74 192.35Z" fill="#EBEBEB"/>
<path d="M92.4 161.246C91.6414 161.133 90.8725 161.107 90.108 161.168C90.018 161.168 90.024 161.324 90.108 161.33C90.864 161.33 91.626 161.294 92.382 161.33C92.3906 161.328 92.3985 161.323 92.4047 161.317C92.4108 161.31 92.4151 161.302 92.417 161.294C92.4189 161.285 92.4183 161.276 92.4153 161.267C92.4123 161.259 92.407 161.252 92.4 161.246Z" fill="white"/>
<path d="M84.126 176.18C82.9095 176.205 81.707 176.444 80.574 176.888C80.574 176.888 80.574 176.948 80.574 176.942C81.774 176.66 82.932 176.546 84.12 176.342C84.1355 176.335 84.1488 176.324 84.1583 176.31C84.1678 176.296 84.1732 176.28 84.1738 176.263C84.1745 176.246 84.1703 176.229 84.1618 176.215C84.1534 176.2 84.1409 176.188 84.126 176.18Z" fill="white"/>
<path d="M81.642 171.02C81.137 171.016 80.6327 171.06 80.136 171.152C80.1268 171.155 80.1189 171.162 80.1133 171.17C80.1077 171.178 80.1047 171.187 80.1047 171.197C80.1047 171.207 80.1077 171.216 80.1133 171.224C80.1189 171.232 80.1268 171.239 80.136 171.242C80.639 171.271 81.1436 171.249 81.642 171.176C81.6627 171.176 81.6826 171.168 81.6972 171.153C81.7118 171.139 81.72 171.119 81.72 171.098C81.72 171.077 81.7118 171.057 81.6972 171.043C81.6826 171.028 81.6627 171.02 81.642 171.02Z" fill="white"/>
<path d="M39.966 163.634C43.7155 164.905 47.3085 166.598 50.676 168.68C54.17 170.9 57.2 173.777 59.598 177.152C64.6434 184.175 68.5064 191.976 71.034 200.246C72.4437 204.825 73.3136 209.553 73.626 214.334C73.6194 214.365 73.6025 214.393 73.5779 214.413C73.5533 214.432 73.5226 214.443 73.491 214.443C73.4594 214.443 73.4287 214.432 73.4041 214.413C73.3796 214.393 73.3626 214.365 73.356 214.334C72.2969 206.044 69.9443 197.972 66.384 190.412C62.886 183.002 58.476 175.118 51.732 170.21C48.06 167.54 43.932 165.788 39.816 163.94C39.6 163.868 39.75 163.562 39.966 163.634Z" fill="#EBEBEB"/>
<path d="M68.346 194.96C65.7393 192.588 62.8802 190.51 59.82 188.762C55.056 186.116 51.186 184.376 50.004 182.066C48.822 179.756 52.5 176.756 52.5 176.756C52.5 176.756 47.64 179.156 45.624 177.386C43.608 175.616 39.372 163.376 39.372 163.376C39.372 163.376 50.598 167.366 57.6 175.46C64.602 183.554 68.346 194.96 68.346 194.96Z" fill="#EBEBEB"/>
<path d="M59.028 183.692C57.9243 183.615 56.8161 183.752 55.764 184.094C55.764 184.094 55.764 184.148 55.764 184.142C56.8374 183.958 57.9218 183.846 59.01 183.806C59.088 183.806 59.106 183.698 59.028 183.692Z" fill="white"/>
<path d="M49.236 170.852C48.7325 170.811 48.2258 170.839 47.73 170.936C47.676 170.936 47.694 171.032 47.73 171.026C48.228 170.972 48.714 170.99 49.206 170.978C49.2213 170.979 49.2363 170.974 49.2485 170.965C49.2607 170.955 49.2693 170.942 49.2728 170.927C49.2764 170.912 49.2746 170.897 49.2679 170.883C49.2612 170.869 49.2499 170.858 49.236 170.852Z" fill="white"/>
<path d="M82.824 229.808H57.486L61.098 203.342L62.022 196.556H78.288L79.212 203.342L82.824 229.808Z" fill="#DBDBDB"/>
<path d="M79.212 203.342H61.098L62.022 196.556H78.288L79.212 203.342Z" fill="#C7C7C7"/>
<path d="M80.61 194.204H59.694V199.952H80.61V194.204Z" fill="#DBDBDB"/>
<path d="M41.376 229.808L86.982 229.664L132.588 229.61L223.8 229.508L315.012 229.61L360.618 229.664L406.224 229.808L360.618 229.958L315.012 230.006L223.8 230.108L132.588 230.006L86.982 229.952L41.376 229.808Z" fill="#263238"/>
<path d="M225 274.526C320.017 274.526 397.044 266.086 397.044 255.674C397.044 245.262 320.017 236.822 225 236.822C129.983 236.822 52.956 245.262 52.956 255.674C52.956 266.086 129.983 274.526 225 274.526Z" fill="#EBEBEB"/>
<path d="M184.95 252.554C183.552 253.028 143.466 253.154 141.93 252.206C141.33 251.846 140.988 246.008 140.73 238.94C140.676 237.416 140.634 235.838 140.598 234.242L137.4 212.858L164.202 212.684L166.728 234.074L166.626 238.778C166.626 238.778 181.998 245.588 183.57 246.824C185.142 248.06 186.348 252.08 184.95 252.554Z" fill="#EB9481"/>
<path d="M184.95 252.554C183.552 253.028 143.466 253.154 141.93 252.206C141.222 251.762 140.838 243.236 140.622 234.242L166.698 234.074L166.596 238.778C166.596 238.778 181.968 245.588 183.54 246.824C185.112 248.06 186.348 252.08 184.95 252.554Z" fill="white"/>
<path d="M184.95 252.554C183.552 253.028 143.466 253.154 141.93 252.206C141.33 251.846 140.988 246.008 140.73 238.94L166.572 238.778C166.572 238.778 181.944 245.588 183.516 246.824C185.088 248.06 186.348 252.08 184.95 252.554Z" fill="#A6A6A6"/>
<path d="M184.368 250.952C177.648 250.808 150.528 250.874 143.874 251.246C143.82 251.246 143.82 251.282 143.874 251.288C150.534 251.57 177.654 251.288 184.368 251.06C184.512 251.054 184.512 250.952 184.368 250.952Z" fill="#263238"/>
<path d="M180.954 245.39C180.207 245.373 179.464 245.512 178.773 245.797C178.082 246.082 177.458 246.507 176.94 247.046C175.996 248.008 175.462 249.298 175.452 250.646C175.452 250.688 175.524 250.688 175.53 250.646C175.753 249.319 176.4 248.099 177.373 247.169C178.346 246.239 179.594 245.649 180.93 245.486C180.943 245.489 180.956 245.487 180.967 245.48C180.979 245.474 180.987 245.463 180.99 245.45C180.993 245.437 180.991 245.424 180.984 245.413C180.978 245.401 180.967 245.393 180.954 245.39Z" fill="#263238"/>
<path d="M169.2 239.438C166.512 239.408 163.398 240.368 161.73 242.576C161.67 242.66 161.79 242.75 161.868 242.708C164.216 241.469 166.69 240.483 169.248 239.768C169.288 239.757 169.322 239.732 169.344 239.698C169.367 239.664 169.376 239.623 169.37 239.582C169.364 239.541 169.343 239.504 169.312 239.478C169.281 239.451 169.241 239.437 169.2 239.438Z" fill="#263238"/>
<path d="M171.288 240.236C168.594 240.236 165.48 241.172 163.818 243.374C163.752 243.464 163.872 243.554 163.956 243.512C166.301 242.268 168.773 241.28 171.33 240.566C171.369 240.555 171.403 240.531 171.425 240.497C171.448 240.464 171.457 240.423 171.452 240.383C171.447 240.343 171.428 240.306 171.398 240.279C171.367 240.252 171.328 240.237 171.288 240.236Z" fill="#263238"/>
<path d="M173.364 241.04C170.676 241.04 167.562 241.97 165.894 244.178C165.834 244.262 165.954 244.352 166.032 244.31C168.38 243.07 170.854 242.085 173.412 241.37C173.452 241.359 173.486 241.334 173.508 241.3C173.531 241.266 173.54 241.224 173.534 241.184C173.528 241.143 173.507 241.106 173.476 241.08C173.445 241.053 173.405 241.039 173.364 241.04Z" fill="#263238"/>
<path d="M175.446 241.844C172.752 241.814 169.638 242.774 167.976 244.982C167.91 245.066 168.036 245.156 168.114 245.114C170.462 243.873 172.936 242.888 175.494 242.174C175.534 242.163 175.568 242.138 175.59 242.104C175.613 242.07 175.622 242.028 175.616 241.988C175.61 241.947 175.589 241.91 175.558 241.884C175.527 241.857 175.487 241.843 175.446 241.844Z" fill="#263238"/>
<path d="M145.566 244.856C142.566 244.856 142.566 249.566 145.566 249.548C148.566 249.53 148.59 244.838 145.566 244.856Z" fill="#263238"/>
<path d="M172.086 232.25C170.724 231.122 169.008 232.25 168.174 233.408C166.786 235.455 165.958 237.83 165.774 240.296C165.774 240.35 165.816 240.374 165.858 240.374C165.869 240.425 165.891 240.472 165.924 240.513C165.957 240.553 165.999 240.585 166.047 240.605C166.094 240.626 166.146 240.635 166.198 240.631C166.25 240.627 166.3 240.611 166.344 240.584C168.252 239.258 170.46 238.07 171.906 236.192C172.728 235.1 173.4 233.3 172.086 232.25ZM168.81 237.974C167.886 238.652 166.932 239.282 166.032 239.996C166.512 238.652 166.926 237.296 167.538 236C167.821 235.379 168.145 234.777 168.51 234.2C169.11 233.306 171.726 231.05 172.002 233.972C172.158 235.574 169.908 237.17 168.81 237.974Z" fill="#263238"/>
<path d="M159.078 241.316C161.418 241.664 163.836 240.992 166.134 240.626C166.184 240.613 166.23 240.588 166.269 240.554C166.307 240.52 166.338 240.478 166.357 240.43C166.376 240.382 166.384 240.33 166.38 240.279C166.375 240.228 166.359 240.178 166.332 240.134C166.341 240.127 166.348 240.119 166.353 240.109C166.357 240.099 166.36 240.088 166.36 240.077C166.36 240.066 166.357 240.055 166.353 240.045C166.348 240.035 166.341 240.027 166.332 240.02C164.486 238.373 162.238 237.241 159.816 236.738C158.4 236.468 156.396 236.858 156.216 238.616C156 240.272 157.71 241.1 159.078 241.316ZM157.446 239.792C155.646 237.488 159.084 237.29 160.116 237.53C160.786 237.698 161.443 237.91 162.084 238.166C163.396 238.71 164.68 239.321 165.93 239.996C164.79 240.11 163.668 240.314 162.534 240.47C161.178 240.65 158.454 241.058 157.446 239.792Z" fill="#263238"/>
<path d="M97.992 114.02C97.992 114.02 129.114 166.964 129.948 170.684C131.226 176.396 138 232.802 138 232.802L170.4 232.202C170.4 232.202 164.82 182.468 159.534 166.082C155.73 154.28 128.262 115.136 128.262 115.136L97.992 114.02Z" fill="#37474F"/>
<path d="M167.454 227.258C162.804 227.222 146.322 227.036 140.13 227.612C140.082 227.612 140.088 227.696 140.13 227.702C142.26 228.008 162.798 227.534 167.448 227.384C167.458 227.388 167.468 227.389 167.478 227.388C167.489 227.386 167.498 227.383 167.507 227.377C167.516 227.371 167.523 227.364 167.528 227.355C167.533 227.346 167.536 227.335 167.536 227.325C167.537 227.315 167.535 227.305 167.531 227.295C167.526 227.286 167.52 227.277 167.512 227.271C167.504 227.264 167.495 227.26 167.485 227.258C167.474 227.255 167.464 227.256 167.454 227.258Z" fill="#263238"/>
<path d="M103.302 118.88C105.342 122.078 107.502 125.21 109.578 128.384C111.654 131.558 113.742 134.732 115.8 137.9C119.904 144.3 123.904 150.742 127.8 157.226C129.701 160.232 131.328 163.402 132.66 166.7C133.876 169.998 134.79 173.4 135.39 176.864C136.026 180.338 136.446 183.848 136.836 187.358C137.236 191.09 137.654 194.824 138.09 198.56C138.942 206.204 139.796 213.848 140.652 221.492C140.754 222.428 140.856 223.364 140.952 224.306C140.952 224.444 140.718 224.468 140.7 224.306C139.746 216.716 138.954 209.096 138.09 201.506C137.658 197.718 137.228 193.932 136.8 190.148C136.398 186.626 136.014 183.098 135.468 179.6C134.967 176.147 134.205 172.737 133.188 169.4C132.068 165.944 130.566 162.624 128.712 159.5C124.962 153.026 120.99 146.666 117.018 140.3C113.046 133.934 108.966 127.514 104.778 121.226C104.262 120.452 103.74 119.678 103.2 118.916C103.158 118.874 103.266 118.82 103.302 118.88Z" fill="#263238"/>
<path d="M108.192 255.674C106.716 255.584 68.592 240.14 67.536 238.676C67.489 238.59 67.4681 238.492 67.476 238.394C67.476 237.08 70.122 232.496 72.33 226.472C72.468 226.088 73.452 224.3 74.814 221.894C78.6 215.3 85.2 203.942 85.2 203.942L110.118 213.842L98.19 231.692L96.336 236.012C96.336 236.012 108.03 248.102 109.014 249.812C109.998 251.522 109.662 255.758 108.192 255.674Z" fill="#EB9481"/>
<path d="M108.192 255.674C106.716 255.584 68.592 240.14 67.536 238.676C67.489 238.59 67.4681 238.492 67.476 238.394C67.476 237.08 70.122 232.496 72.33 226.472C72.468 226.088 73.452 224.3 74.814 221.894L98.214 231.692L96.36 236.012C96.36 236.012 108.054 248.102 109.038 249.812C110.022 251.522 109.662 255.758 108.192 255.674Z" fill="white"/>
<path d="M108.192 255.674C106.716 255.584 68.592 240.14 67.536 238.676C67.128 238.118 68.832 232.916 72.336 226.472L96.336 236.018C96.336 236.018 108.03 248.096 109.02 249.818C110.01 251.54 109.662 255.758 108.192 255.674Z" fill="#A6A6A6"/>
<path d="M108.252 253.97C102.078 251.318 76.914 241.202 70.608 239.054C70.554 239.054 70.542 239.054 70.608 239.09C76.674 241.85 101.916 251.762 108.228 254.09C108.348 254.12 108.384 254.024 108.252 253.97Z" fill="#263238"/>
<path d="M107.172 247.532C106.487 247.231 105.748 247.076 105 247.076C104.252 247.076 103.513 247.231 102.828 247.532C101.597 248.071 100.621 249.064 100.104 250.304C100.104 250.34 100.158 250.37 100.176 250.334C100.883 249.184 101.944 248.293 103.2 247.797C104.456 247.3 105.839 247.224 107.142 247.58C107.152 247.577 107.161 247.571 107.166 247.562C107.172 247.553 107.174 247.542 107.172 247.532Z" fill="#263238"/>
<path d="M98.514 237.608C96.036 236.57 92.784 236.294 90.414 237.716C90.324 237.77 90.414 237.896 90.492 237.89C93.134 237.622 95.797 237.636 98.436 237.932C98.4766 237.937 98.5174 237.926 98.5508 237.902C98.5842 237.879 98.6079 237.844 98.6175 237.804C98.6271 237.765 98.6218 237.723 98.6028 237.687C98.5837 237.651 98.5522 237.623 98.514 237.608Z" fill="#263238"/>
<path d="M100.14 239.132C97.662 238.094 94.41 237.818 92.04 239.24C91.95 239.294 92.04 239.42 92.118 239.414C94.7598 239.143 97.4231 239.157 100.062 239.456C100.103 239.46 100.143 239.45 100.177 239.426C100.21 239.403 100.234 239.368 100.243 239.328C100.253 239.289 100.248 239.247 100.229 239.211C100.21 239.175 100.178 239.147 100.14 239.132Z" fill="#263238"/>
<path d="M101.772 240.656C99.288 239.618 96.036 239.342 93.672 240.764C93.576 240.818 93.672 240.944 93.744 240.938C96.3858 240.667 99.0492 240.681 101.688 240.98C101.729 240.987 101.772 240.978 101.807 240.955C101.842 240.932 101.868 240.897 101.878 240.856C101.889 240.816 101.884 240.773 101.864 240.735C101.844 240.698 101.812 240.67 101.772 240.656Z" fill="#263238"/>
<path d="M103.398 242.18C100.914 241.142 97.668 240.866 95.298 242.282C95.202 242.342 95.298 242.468 95.37 242.462C98.0119 242.191 100.675 242.205 103.314 242.504C103.355 242.511 103.398 242.502 103.433 242.479C103.468 242.456 103.494 242.421 103.504 242.38C103.515 242.34 103.51 242.297 103.49 242.26C103.47 242.222 103.438 242.194 103.398 242.18Z" fill="#263238"/>
<path d="M74.568 233.762C71.766 232.646 70.026 237.008 72.84 238.124C75.654 239.24 77.4 234.878 74.568 233.762Z" fill="#263238"/>
<path d="M103.884 232.028C103.038 230.474 101.04 230.858 99.822 231.632C97.7702 233.007 96.1151 234.895 95.022 237.11C95.0172 237.12 95.0146 237.13 95.0145 237.141C95.0144 237.152 95.0168 237.163 95.0214 237.173C95.026 237.182 95.0328 237.191 95.0412 237.198C95.0496 237.205 95.0594 237.21 95.07 237.212C95.07 237.41 95.202 237.644 95.436 237.596C97.71 237.074 100.2 236.804 102.24 235.604C103.41 234.908 104.682 233.498 103.884 232.028ZM98.694 236.102C97.584 236.384 96.468 236.612 95.37 236.936C96.2782 235.842 97.2414 234.794 98.256 233.798C98.7554 233.322 99.2867 232.881 99.846 232.478C100.716 231.878 104.004 230.768 103.164 233.582C102.702 235.136 100.02 235.766 98.694 236.102Z" fill="#263238"/>
<path d="M88.422 235.55C90.462 236.75 92.952 237.032 95.22 237.56C95.454 237.614 95.61 237.38 95.592 237.176C95.6033 237.175 95.614 237.171 95.6232 237.164C95.6325 237.158 95.6398 237.149 95.6446 237.139C95.6495 237.128 95.6516 237.117 95.6508 237.106C95.65 237.094 95.6462 237.084 95.64 237.074C94.5486 234.855 92.8934 232.962 90.84 231.584C89.64 230.804 87.63 230.414 86.778 231.962C85.926 233.51 87.228 234.848 88.422 235.55ZM87.486 233.522C86.652 230.708 89.934 231.824 90.804 232.43C91.3626 232.834 91.892 233.277 92.388 233.756C93.4006 234.755 94.3618 235.804 95.268 236.9C94.17 236.576 93.054 236.342 91.944 236.06C90.6 235.7 87.942 235.1 87.486 233.522Z" fill="#263238"/>
<path d="M100.128 230.696L72.234 219.434C72.234 219.434 106.818 168.584 107.07 164.798C107.298 161.45 92.106 132.278 91.512 123.776C90.864 114.596 95.28 107.498 100.14 103.088L128.91 115.322C128.91 115.322 125.874 120.176 121.11 122.882C121.11 122.882 135.864 156.602 135.024 166.97C134.184 177.338 100.128 230.696 100.128 230.696Z" fill="#37474F"/>
<path d="M101.364 225.392C97.332 223.658 98.514 224.096 94.458 222.392C92.478 221.564 79.458 216.146 77.454 215.696C77.412 215.696 77.382 215.756 77.424 215.78C79.158 216.842 92.286 222.032 94.284 222.824C98.37 224.432 97.212 223.928 101.316 225.488C101.322 225.496 101.33 225.503 101.34 225.507C101.349 225.511 101.359 225.513 101.369 225.512C101.38 225.511 101.389 225.507 101.398 225.502C101.406 225.496 101.413 225.488 101.418 225.479C101.422 225.47 101.424 225.46 101.424 225.449C101.423 225.439 101.42 225.429 101.415 225.421C101.41 225.412 101.402 225.405 101.393 225.4C101.384 225.395 101.374 225.392 101.364 225.392Z" fill="#263238"/>
<path d="M125.826 122.264C122.831 122.962 119.9 123.914 117.066 125.108C117.055 125.112 117.044 125.118 117.035 125.126C117.026 125.134 117.019 125.144 117.013 125.155C117.008 125.166 117.005 125.177 117.004 125.189C117.003 125.202 117.005 125.214 117.009 125.225C117.013 125.236 117.019 125.247 117.027 125.256C117.035 125.265 117.045 125.272 117.056 125.278C117.067 125.283 117.078 125.286 117.09 125.287C117.102 125.288 117.115 125.286 117.126 125.282C120.066 124.424 123.054 123.62 125.946 122.606C126.168 122.528 126.054 122.216 125.826 122.264Z" fill="#263238"/>
<path d="M122.4 121.1C122.12 121.597 121.874 122.112 121.662 122.642C121.455 123.044 121.327 123.482 121.284 123.932C121.284 124.022 121.404 124.04 121.458 123.986C121.759 123.626 122.002 123.221 122.178 122.786C122.424 122.312 122.676 121.844 122.91 121.358C123.072 121.004 122.586 120.776 122.4 121.1Z" fill="#263238"/>
<path d="M122.76 118.376C122.94 117.932 123.114 117.494 123.3 117.05C123.486 116.606 123.72 116.15 123.9 115.682C123.9 115.61 124.044 115.682 124.014 115.736C123.834 116.18 123.72 116.648 123.582 117.104C123.444 117.56 123.288 118.016 123.138 118.472C122.856 119.318 122.538 120.158 122.148 120.98C122.62 121.004 123.092 120.922 123.528 120.74C123.974 120.455 124.317 120.034 124.506 119.54C124.758 119.048 124.992 118.544 125.25 118.052C125.568 117.52 125.835 116.96 126.048 116.378C126.048 116.306 126.192 116.378 126.162 116.432C125.771 117.662 125.258 118.85 124.632 119.978C124.362 120.416 124.152 120.878 123.66 121.046C123.127 121.195 122.57 121.234 122.022 121.16C121.95 121.16 121.866 121.16 121.89 121.052C122.136 120.146 122.426 119.253 122.76 118.376Z" fill="#263238"/>
<path d="M121.536 123.98C122.562 126.146 123.462 128.306 124.416 130.466C125.37 132.626 126.216 134.714 127.074 136.862C128.79 141.194 130.326 145.61 131.676 150.062C132.342 152.27 132.96 154.496 133.512 156.74C134.12 158.977 134.565 161.255 134.844 163.556C135.085 165.853 134.881 168.176 134.244 170.396C133.582 172.591 132.733 174.725 131.706 176.774C131.076 178.07 130.866 177.896 131.166 177.242C132.024 175.382 134.274 169.748 134.112 165.014C133.981 162.748 133.631 160.499 133.068 158.3C132.544 156.032 131.954 153.782 131.298 151.55C130.02 147.146 128.502 142.832 126.942 138.524C126.066 136.124 125.142 133.724 124.242 131.324C123.342 128.924 122.442 126.716 121.434 124.064C121.404 123.956 121.506 123.914 121.536 123.98Z" fill="#263238"/>
<path d="M100.362 116.822C100.86 116.636 101.562 116.942 102.066 117.026C102.719 117.137 103.378 117.203 104.04 117.224C104.695 117.247 105.35 117.225 106.002 117.158C106.658 117.141 107.302 116.971 107.88 116.66C108.829 115.969 109.643 115.108 110.28 114.122C111.039 113.114 111.667 112.013 112.146 110.846C112.146 110.774 112.272 110.846 112.248 110.894C112.038 111.56 111.882 112.232 111.648 112.886C111.389 113.501 111.08 114.093 110.724 114.656C110.146 115.79 109.292 116.76 108.24 117.476C107.082 118.136 105.594 118.076 104.304 118.022C103.556 117.979 102.812 117.88 102.078 117.728C101.55 117.614 100.662 117.53 100.326 117.068C100.31 117.05 100.298 117.03 100.292 117.007C100.285 116.984 100.283 116.96 100.286 116.937C100.29 116.913 100.298 116.891 100.312 116.871C100.325 116.851 100.342 116.835 100.362 116.822Z" fill="#263238"/>
<path d="M80.196 214.1C84.78 207.156 89.28 200.156 93.696 193.1C98.112 186.044 102.468 178.934 106.764 171.77C107.79 170.06 108.972 168.356 109.632 166.46C110.352 164.402 109.944 162.404 109.296 160.388C108.072 156.71 106.642 153.105 105.012 149.588C103.404 146.042 101.67 142.556 99.966 139.058C98.262 135.56 96.48 132.104 95.166 128.456C93.966 124.97 93.48 121.358 94.416 117.746C95.352 114.134 97.368 110.942 99.474 107.936C100.026 107.144 100.596 106.358 101.154 105.536C101.196 105.476 101.286 105.536 101.244 105.608C98.922 108.74 96.66 112.058 95.298 115.736C94.6019 117.549 94.2125 119.465 94.146 121.406C94.1346 123.376 94.4405 125.335 95.052 127.208C96.18 130.856 97.962 134.306 99.624 137.738C101.286 141.17 103.062 144.722 104.7 148.256C106.39 151.813 107.892 155.456 109.2 159.17C109.758 160.82 110.4 162.548 110.352 164.318C110.31 166.256 109.386 168.002 108.426 169.634C104.226 176.744 99.924 183.77 95.544 190.754C91.164 197.738 86.658 204.722 82.098 211.634L80.37 214.244C80.28 214.352 80.124 214.226 80.196 214.1Z" fill="#263238"/>
<path d="M130.506 82.9821C133.104 88.6821 146.226 96.5361 152.37 97.3821C156.786 97.9821 170.214 98.1981 174.816 97.4961C180.216 96.6681 176.088 82.1181 172.902 82.4961C164.142 83.5161 156.702 84.6561 154.362 84.6561C151.506 84.6561 136.056 79.7001 134.196 78.9981C129.636 77.3001 129.036 79.7481 130.506 82.9821Z" fill="#EB9481"/>
<path d="M130.59 84.5C133.878 89.366 144.804 97.322 144.804 97.322L146.322 93.962L151.344 82.85C151.344 82.85 141.306 79.7 134.7 78.26C133.923 78.0831 133.132 77.9707 132.336 77.924C128.118 77.696 127.752 80.3 130.59 84.5Z" fill="#007DFC"/>
<path d="M130.59 84.4999C133.878 89.3659 144.804 97.3219 144.804 97.3219L146.322 93.9619C142.248 89.2279 135.954 82.0579 132.336 77.9359C128.118 77.6959 127.752 80.2999 130.59 84.4999Z" fill="#263238"/>
<path d="M142.836 95.066C143.67 93.02 147.378 84.782 148.302 83.066C148.362 82.946 148.458 82.958 148.404 83.066C146.796 87.1628 144.965 91.1687 142.92 95.066C142.896 95.138 142.8 95.114 142.836 95.066Z" fill="#263238"/>
<path d="M171.294 82.6461C176.622 81.9501 183.216 80.7561 188.802 83.1261C189.429 83.3721 189.956 83.8223 190.296 84.404C192.816 85.424 193.092 86.918 193.092 86.918C195.15 88.586 195.222 90.158 195.222 90.158C195.222 90.158 198.174 91.358 197.724 93.29C197.232 95.426 193.188 93.2901 190.248 93.4641C183.498 93.8841 174.048 96.362 172.098 96.674L171.294 82.6461Z" fill="#EB9481"/>
<path d="M182.868 88.9341C184.842 88.7991 186.822 88.7991 188.796 88.9341C190.945 89.2038 193.071 89.635 195.156 90.2241C195.17 90.2289 195.184 90.2281 195.197 90.2219C195.21 90.2157 195.22 90.2046 195.225 90.1911C195.23 90.1776 195.229 90.1627 195.223 90.1498C195.217 90.1368 195.206 90.1269 195.192 90.1221C191.276 88.5856 187.013 88.1539 182.868 88.8741C182.772 88.8621 182.772 88.9401 182.868 88.9341Z" fill="#263238"/>
<path d="M181.614 82.7002C184.908 82.8682 186.966 83.3962 190.278 84.3922V84.3562C186.63 82.8322 185.136 82.6882 181.596 82.5562C181.482 82.6042 181.488 82.7002 181.614 82.7002Z" fill="#263238"/>
<path d="M182.148 94.4841C181.29 94.8861 181.5 95.3361 183.138 95.7141C184.776 96.0921 191.586 96.2061 191.346 98.5821C191.106 100.958 181.5 100.658 178.818 99.8181C176.136 98.9781 172.098 96.6741 172.098 96.6741C174 96.3561 178.464 95.1501 182.148 94.4841Z" fill="#EB9481"/>
<path d="M137.64 92.0661C137.598 93.0921 137.502 94.1361 137.358 95.1741C137.358 95.1321 137.358 95.0961 137.4 95.0601C137.598 94.5201 137.796 93.9681 138.036 93.4461C138.036 93.4461 138.096 93.4461 138.09 93.4461C137.975 94.0181 137.802 94.5769 137.574 95.1141C137.466 95.3721 137.364 95.6241 137.25 95.8761C137.178 96.3381 137.094 96.7941 137.004 97.2501C136.824 98.1081 136.014 101.756 135.804 102.374C135.768 102.5 135.612 102.47 135.624 102.326C135.666 101.654 136.344 97.8561 136.482 96.9921C136.75 95.3239 137.109 93.6714 137.556 92.0421C137.586 92.0121 137.646 92.0361 137.64 92.0661Z" fill="#263238"/>
<path d="M131.4 119.348C129.798 120.17 127.734 121.448 118.434 119.618C117.834 119.498 117.27 119.354 116.682 119.18C107.964 116.564 97.482 106.31 96.912 105.584C96.912 105.584 110.766 83.1261 128.484 76.0641C130.674 75.1941 134.298 76.8741 136.284 78.9681C136.998 79.7181 138.552 85.2321 137.958 89.6961C137.364 94.1601 132.996 118.526 131.4 119.348Z" fill="#007DFC"/>
<path d="M130.152 89.4919C130.219 90.441 130.086 91.3935 129.762 92.2879C129.686 91.3386 129.819 90.3842 130.152 89.4919Z" fill="white"/>
<path d="M124.11 104.786C124.148 105.258 124.132 105.734 124.062 106.202C124.004 106.674 123.889 107.138 123.72 107.582C123.679 107.108 123.695 106.63 123.768 106.16C123.829 105.691 123.944 105.23 124.11 104.786Z" fill="white"/>
<path d="M113.844 93.2241C113.912 94.1751 113.779 95.1297 113.454 96.0261C113.379 95.0749 113.512 94.1186 113.844 93.2241Z" fill="white"/>
<path d="M134.106 104.006C134.144 104.48 134.128 104.957 134.058 105.428C134 105.9 133.885 106.364 133.716 106.808C133.675 106.334 133.691 105.856 133.764 105.386C133.825 104.914 133.939 104.451 134.106 104.006Z" fill="white"/>
<path d="M120.924 91.244C121.396 91.2038 121.871 91.2179 122.34 91.286C122.812 91.3459 123.276 91.4627 123.72 91.634C122.771 91.7022 121.818 91.5693 120.924 91.244Z" fill="white"/>
<path d="M109.272 102.29C110.221 102.223 111.173 102.356 112.068 102.68C111.119 102.756 110.164 102.623 109.272 102.29Z" fill="white"/>
<path d="M123 114.248C123.949 114.18 124.902 114.313 125.796 114.638C124.847 114.713 123.893 114.58 123 114.248Z" fill="white"/>
<path d="M105.678 109.904C106.627 109.837 107.579 109.97 108.474 110.294C107.525 110.369 106.571 110.236 105.678 109.904Z" fill="white"/>
<path d="M130.062 78.74C131.011 78.6731 131.964 78.806 132.858 79.13C131.909 79.1969 130.956 79.064 130.062 78.74Z" fill="white"/>
<path d="M126.672 82.5681C126.369 82.9328 126.022 83.2591 125.64 83.5401C125.268 83.8276 124.866 84.0731 124.44 84.2721C124.741 83.9098 125.084 83.5836 125.46 83.3001C125.835 83.0115 126.242 82.766 126.672 82.5681Z" fill="white"/>
<path d="M108.198 93.446C107.891 93.8075 107.543 94.1317 107.16 94.412C106.792 94.705 106.389 94.9509 105.96 95.144C106.269 94.7841 106.617 94.4601 106.998 94.178C107.367 93.8864 107.77 93.6406 108.198 93.446Z" fill="white"/>
<path d="M131.268 98.354C130.961 98.7174 130.613 99.0436 130.23 99.326C129.861 99.6177 129.458 99.8635 129.03 100.058C129.337 99.6947 129.685 99.3684 130.068 99.086C130.439 98.7972 130.841 98.5517 131.268 98.354Z" fill="white"/>
<path d="M116.328 107.762C116.021 108.125 115.673 108.452 115.29 108.734C114.92 109.025 114.518 109.271 114.09 109.466C114.397 109.103 114.745 108.776 115.128 108.494C115.499 108.205 115.901 107.96 116.328 107.762Z" fill="white"/>
<path d="M136.992 85.502C136.685 85.8653 136.337 86.1915 135.954 86.474C135.582 86.7615 135.18 87.007 134.754 87.206C135.061 86.8426 135.409 86.5164 135.792 86.234C136.161 85.9431 136.564 85.6974 136.992 85.502Z" fill="white"/>
<path d="M136.68 96.404C136.317 96.0971 135.99 95.7487 135.708 95.366C135.416 94.9974 135.17 94.5944 134.976 94.166C135.341 94.4693 135.667 94.8159 135.948 95.198C136.235 95.5725 136.48 95.9769 136.68 96.404Z" fill="white"/>
<path d="M103.38 103.916C103.017 103.609 102.69 103.261 102.408 102.878C102.119 102.507 101.874 102.104 101.676 101.678C102.039 101.985 102.366 102.333 102.648 102.716C102.939 103.085 103.185 103.488 103.38 103.916Z" fill="white"/>
<path d="M132.63 112.85C132.265 112.547 131.939 112.2 131.658 111.818C131.371 111.446 131.125 111.044 130.926 110.618C131.289 110.925 131.616 111.273 131.898 111.656C132.188 112.024 132.433 112.425 132.63 112.85Z" fill="white"/>
<path d="M117.972 87.38C117.609 87.0751 117.283 86.7288 117 86.3479C116.714 85.9753 116.468 85.573 116.268 85.1479C116.633 85.4513 116.959 85.7978 117.24 86.1799C117.526 86.5526 117.772 86.9549 117.972 87.38Z" fill="white"/>
<path d="M118.23 117.938C117.867 117.631 117.54 117.283 117.258 116.9C116.97 116.528 116.725 116.126 116.526 115.7C116.891 116.003 117.217 116.35 117.498 116.732C117.787 117.105 118.032 117.51 118.23 117.938Z" fill="white"/>
<path d="M120.72 99.914C120.36 99.6054 120.036 99.2572 119.754 98.876C119.461 98.508 119.215 98.1049 119.022 97.676C119.383 97.9831 119.708 98.3314 119.988 98.714C120.28 99.0829 120.525 99.4859 120.72 99.914Z" fill="white"/>
<path d="M133.038 84.9501C130.776 84.5301 128.652 79.8561 128.382 76.7121C128.382 76.4961 129.438 74.7861 130.644 72.6441C131.376 71.3421 132.15 69.8721 132.768 68.4801C132.894 68.1981 133.632 69.1521 133.632 69.1521L135.24 70.3521L140.55 74.4261C139.286 75.9434 138.212 77.6098 137.352 79.3881C137.267 79.5808 137.203 79.7819 137.16 79.9881C137.158 80.0221 137.158 80.0561 137.16 80.0901C136.83 81.2781 135.216 85.3521 133.038 84.9501Z" fill="#EB9481"/>
<path d="M137.16 80.0182C137.158 80.0521 137.158 80.0862 137.16 80.1202C136.845 80.0277 136.538 79.9093 136.242 79.7662C130.428 77.0422 132.99 69.2542 132.99 69.2542L135.27 70.3822L140.58 74.4562C139.316 75.9735 138.242 77.6399 137.382 79.4182C137.287 79.6097 137.212 79.8108 137.16 80.0182Z" fill="#263238"/>
<path d="M146.652 57.8481C146.652 57.8481 149.31 59.5341 149.322 62.5341C149.334 65.5341 148.122 68.4681 147.87 68.5761C147.618 68.6841 146.652 57.8481 146.652 57.8481Z" fill="#263238"/>
<path d="M133.464 59.408C131.868 62.558 131.952 72.488 133.944 75.044C136.836 78.752 142.404 80.03 145.77 76.364C149.028 72.812 148.692 59.876 146.37 57.464C142.992 53.9 135.828 54.746 133.464 59.408Z" fill="#EB9481"/>
<path d="M141.936 67.3582C141.936 67.3582 141.882 67.3942 141.888 67.4182C141.924 68.0962 141.852 68.8762 141.246 69.1162C141.246 69.1162 141.246 69.1582 141.246 69.1522C141.996 69.0322 142.08 67.9942 141.936 67.3582Z" fill="#263238"/>
<path d="M141.318 66.668C140.226 66.608 140.19 68.792 141.204 68.846C142.218 68.9 142.23 66.716 141.318 66.668Z" fill="#263238"/>
<path d="M145.638 67.334C145.638 67.334 145.692 67.334 145.692 67.394C145.656 68.072 145.734 68.852 146.346 69.086C146.346 69.086 146.346 69.128 146.346 69.122C145.59 69.008 145.5 67.97 145.638 67.334Z" fill="#263238"/>
<path d="M146.256 66.6379C147.342 66.5719 147.396 68.7559 146.388 68.8159C145.38 68.8759 145.344 66.6919 146.256 66.6379Z" fill="#263238"/>
<path d="M140.634 65.0062C140.921 64.9246 141.203 64.8284 141.48 64.7182C141.795 64.6611 142.082 64.5007 142.296 64.2622C142.348 64.1748 142.369 64.0728 142.358 63.972C142.346 63.8711 142.301 63.777 142.23 63.7042C142.068 63.5807 141.875 63.5029 141.673 63.4786C141.47 63.4543 141.265 63.4846 141.078 63.5662C140.673 63.6746 140.323 63.9289 140.094 64.2802C140.048 64.3637 140.028 64.4586 140.034 64.5536C140.041 64.6486 140.075 64.7397 140.131 64.8161C140.188 64.8925 140.266 64.951 140.355 64.9847C140.444 65.0184 140.541 65.0258 140.634 65.0062Z" fill="#263238"/>
<path d="M147 65.9721C146.708 65.9069 146.42 65.8267 146.136 65.7321C145.82 65.6903 145.526 65.5447 145.302 65.3181C145.244 65.2347 145.216 65.1341 145.223 65.0328C145.229 64.9315 145.27 64.8354 145.338 64.7601C145.493 64.6278 145.68 64.5396 145.881 64.5048C146.081 64.4699 146.288 64.4897 146.478 64.5621C146.888 64.6472 147.252 64.8826 147.498 65.2221C147.549 65.3025 147.576 65.396 147.576 65.4914C147.575 65.5868 147.546 65.6799 147.493 65.7594C147.441 65.8389 147.366 65.9013 147.278 65.9391C147.191 65.9768 147.094 65.9883 147 65.9721Z" fill="#263238"/>
<path d="M140.4 73.772C140.562 73.934 140.718 74.15 140.964 74.174C141.216 74.1739 141.466 74.1207 141.696 74.018C141.696 74.018 141.738 74.018 141.696 74.054C141.598 74.1859 141.465 74.2885 141.313 74.3509C141.161 74.4133 140.995 74.433 140.832 74.408C140.695 74.3707 140.572 74.2939 140.478 74.1872C140.384 74.0806 140.324 73.9487 140.304 73.808C140.299 73.7953 140.3 73.7812 140.305 73.7688C140.311 73.7564 140.321 73.7468 140.334 73.742C140.347 73.7373 140.361 73.7377 140.373 73.7434C140.386 73.749 140.395 73.7593 140.4 73.772Z" fill="#263238"/>
<path d="M144.324 70.8801C144.324 70.8801 144.354 71.8881 144.324 72.3621C143.402 72.2643 142.471 72.2966 141.558 72.4581C141.342 72.5061 141.366 72.3321 141.612 72.2181C142.347 71.882 143.166 71.7734 143.964 71.9061C144.012 71.7801 143.886 70.3461 143.964 70.3521C144.327 70.4234 144.678 70.5445 145.008 70.7121C145.008 68.6001 144.672 66.5121 144.702 64.4001C144.702 64.3281 144.816 64.3161 144.828 64.4001C145.254 66.6344 145.455 68.9058 145.428 71.1801C145.434 71.4381 144.504 70.9761 144.324 70.8801Z" fill="#263238"/>
<path d="M142.974 72.002C142.735 72.6311 142.291 73.1615 141.714 73.508C140.808 73.874 140.514 73.052 141.426 72.308C141.904 72.0663 142.44 71.9604 142.974 72.002Z" fill="#263238"/>
<path d="M142.032 73.3221C141.936 73.4001 141.829 73.4628 141.714 73.5081C140.88 73.8441 140.55 73.1781 141.222 72.5061C141.678 72.5421 142.2 72.7101 142.032 73.3221Z" fill="#FF99BA"/>
<path d="M133.008 67.8981C134.106 68.2341 135.366 64.9341 135.726 63.6981C136.038 62.5821 136.398 59.0361 136.452 58.7901C136.506 58.5441 141.252 61.9281 144 61.1241C146.748 60.3201 148.614 57.8301 148.656 56.6721C148.698 55.5141 145.26 52.5741 142.29 52.4241C139.32 52.2741 135.294 56.0241 135.294 56.0241C135.78 55.4722 136.222 54.8823 136.614 54.2601C136.566 54.1281 134.646 54.8961 134.292 56.2641C134.292 56.2641 134.676 54.5421 134.532 54.5121C134.388 54.4821 132.894 55.9521 133.23 57.0681C133.23 57.0681 131.502 58.5621 131.346 60.2001C131.19 61.8381 131.718 67.5021 133.008 67.8981Z" fill="#263238"/>
<path d="M145.968 60.5002C145.151 60.9433 144.271 61.2589 143.358 61.4362C142.334 61.5275 141.303 61.3626 140.358 60.9562C139.406 60.5885 138.522 60.0654 137.742 59.4082C137.052 58.8442 136.434 58.1542 135.696 57.6502C135.51 57.5182 135.3 57.7882 135.414 57.9562C136.645 59.6953 138.404 60.9914 140.43 61.6522C141.371 61.9589 142.375 62.0163 143.345 61.8185C144.315 61.6208 145.216 61.1748 145.962 60.5242C145.962 60.5242 145.98 60.5002 145.968 60.5002Z" fill="#263238"/>
<path d="M134.154 67.604C134.154 67.604 132.45 64.148 130.914 64.706C129.378 65.264 130.314 70.046 131.892 70.922C132.085 71.047 132.302 71.1318 132.529 71.1711C132.756 71.2105 132.988 71.2036 133.212 71.1509C133.436 71.0983 133.647 71.0009 133.833 70.8646C134.019 70.7284 134.175 70.556 134.292 70.358L134.154 67.604Z" fill="#EB9481"/>
<path d="M131.22 66.0681C131.22 66.0681 131.184 66.0681 131.22 66.1161C132.312 66.7641 132.756 67.9161 133.02 69.1161C132.97 68.9891 132.894 68.8744 132.795 68.7799C132.697 68.6854 132.579 68.6134 132.45 68.5689C132.321 68.5244 132.184 68.5084 132.048 68.5221C131.913 68.5358 131.781 68.5788 131.664 68.6481C131.628 68.6481 131.664 68.7141 131.664 68.7141C131.879 68.6807 132.098 68.7147 132.293 68.8115C132.487 68.9082 132.647 69.0628 132.75 69.2541C132.922 69.5745 133.059 69.9125 133.158 70.2621C133.194 70.3761 133.392 70.3461 133.374 70.2201C133.632 68.7261 132.792 66.4641 131.22 66.0681Z" fill="#263238"/>
<path d="M122.904 83.0361C121.704 89.8341 129.072 112.736 133.794 117.014C140.82 123.374 153.81 127.556 158.52 128.918C160.572 129.518 166.248 115.076 164.172 114.122C159.726 112.1 145.914 107.78 144.6 106.7C143.286 105.62 135.366 94.1781 131.838 87.5901C127.116 78.7221 123.498 79.5981 122.904 83.0361Z" fill="#EB9481"/>
<path d="M160.674 112.85C160.674 112.85 166.806 114.416 170.76 115.622C172.968 116.3 176.652 117.794 178.05 119.03C180.138 120.884 187.686 129.956 185.526 131.834C183.57 133.538 178.074 124.916 178.074 124.916C178.074 124.916 184.386 133.124 181.674 134.738C178.962 136.352 174 125.786 174 125.786C174 125.786 180.294 134.366 177.216 135.584C174.888 136.502 169.896 127.184 169.896 127.184C169.896 127.184 175.26 134.594 172.896 135.644C170.292 136.808 165.15 128.492 165.15 128.492C158.718 130.154 154.95 128.312 152.472 126.692C151.89 126.296 160.674 112.85 160.674 112.85Z" fill="#EB9481"/>
<path d="M176.07 121.934C176.85 122.87 177.642 123.818 178.332 124.82C179.022 125.822 179.676 126.854 180.27 127.916C181.075 129.29 181.719 130.751 182.19 132.272C181.158 129.632 178.74 126.002 178.05 125C177.36 123.998 176.718 122.96 176.034 121.958C176.016 121.934 176.052 121.91 176.07 121.934Z" fill="#263238"/>
<path d="M172.404 124.364C173.736 125.42 176.526 129.344 177.6 131.978C177.648 132.086 177.6 132.08 177.522 131.978C176.682 130.676 173.274 125.636 172.374 124.382C172.356 124.364 172.386 124.346 172.404 124.364Z" fill="#263238"/>
<path d="M168.882 125.9C170.537 127.636 171.845 129.673 172.734 131.9C172.776 132.008 172.692 131.99 172.626 131.9C171.384 129.878 170.424 128.3 168.816 125.954C168.792 125.9 168.846 125.846 168.882 125.9Z" fill="#263238"/>
<path d="M129.6 83.5341C124.122 75.7881 120.846 78.6561 121.944 87.0681C122.976 94.9341 125.73 104.306 125.73 104.306L139.53 97.6101C139.53 97.6101 133.086 88.4961 129.6 83.5341Z" fill="#007DFC"/>
<path d="M132.93 86.582C133.112 87.0195 133.243 87.4766 133.32 87.944C133.404 88.413 133.434 88.8901 133.41 89.366C133.23 88.9262 133.101 88.4672 133.026 87.998C132.937 87.5317 132.905 87.0562 132.93 86.582Z" fill="white"/>
<path d="M124.752 91.2921C125.633 90.9339 126.58 90.7701 127.53 90.8121C127.092 90.992 126.635 91.1209 126.168 91.1961C125.702 91.2851 125.226 91.3174 124.752 91.2921Z" fill="white"/>
<path d="M125.106 79.2441C124.734 80.121 124.18 80.9085 123.48 81.5541C123.852 80.6773 124.406 79.8897 125.106 79.2441Z" fill="white"/>
<path d="M136.8 94.9102C136.618 95.349 136.386 95.7657 136.11 96.1522C135.841 96.5436 135.527 96.902 135.174 97.2202C135.546 96.3433 136.1 95.5558 136.8 94.9102Z" fill="white"/>
<path d="M127.2 99.6082C126.76 99.4282 126.343 99.1966 125.958 98.9182C125.566 98.6493 125.208 98.3351 124.89 97.9822C125.767 98.3537 126.554 98.9081 127.2 99.6082Z" fill="white"/>
<path d="M131.4 85.8682C132.138 86.8822 132.9 87.8722 133.656 88.8682C133.464 88.3642 133.296 87.8542 133.152 87.3382H133.188C133.338 87.7342 133.512 88.1242 133.656 88.5382L133.872 89.1382C133.891 89.1791 133.907 89.2212 133.92 89.2642C134.52 90.0382 135.12 90.8122 135.672 91.6042C136.35 92.5522 137.004 93.5122 137.664 94.4722C138.324 95.4322 138.99 96.6262 139.704 97.5922C139.77 97.6762 138.504 98.1922 138.366 98.2582C138.228 98.3242 138.156 98.2102 138.288 98.1682C138.42 98.1262 139.428 97.5082 139.44 97.4962C138.78 96.5242 138.018 95.6302 137.328 94.6882C136.638 93.7462 135.954 92.8042 135.288 91.8502C133.938 89.9062 132.702 87.8902 131.358 85.9402L131.4 85.8682Z" fill="#263238"/>
<path d="M122.268 92.636C122.478 93.044 122.706 93.446 122.868 93.866L123.096 94.388C122.778 92.894 122.496 91.388 122.166 89.894C122.802 92.294 123.444 94.748 124.032 97.184C124.59 99.512 125.268 101.864 125.592 104.24C126.01 104.057 126.444 103.91 126.888 103.802C126.442 104.09 125.963 104.322 125.46 104.492C124.737 102.076 124.136 99.6248 123.66 97.148C123.51 96.476 123.372 95.804 123.228 95.132C123.072 94.724 122.886 94.334 122.7 93.932C122.514 93.53 122.346 93.08 122.178 92.654C122.214 92.63 122.256 92.606 122.268 92.636Z" fill="#263238"/>
<path d="M125.934 101.99C127.854 100.91 135.876 96.7579 137.67 95.9899C137.796 95.9359 137.862 95.9899 137.736 96.0739C133.928 98.2866 130.002 100.29 125.976 102.074C125.928 102.086 125.88 102.02 125.934 101.99Z" fill="#263238"/>
<path d="M345.792 259.73H162.984L189.414 109.82H372.222L345.792 259.73Z" fill="#007DFC"/>
<path d="M251.982 94.292H192.156L189.414 109.82H253.44L251.982 94.292Z" fill="#007DFC"/>
<g opacity="0.1">
<path d="M345.792 259.73H162.984L189.414 109.82H372.222L345.792 259.73Z" fill="black"/>
<path d="M251.982 94.292H192.156L189.414 109.82H253.44L251.982 94.292Z" fill="black"/>
</g>
<path d="M185.7 100.628C185.3 98.911 185.3 97.125 185.7 95.408C186.1 97.125 186.1 98.911 185.7 100.628Z" fill="#263238"/>
<path d="M180.384 102.164C179.773 101.531 179.247 100.821 178.818 100.052C178.368 99.2995 178.016 98.4931 177.768 97.6521C178.381 98.2819 178.907 98.99 179.334 99.7581C179.783 100.513 180.135 101.322 180.384 102.164Z" fill="#263238"/>
<path d="M176.544 106.154C174.858 105.641 173.312 104.748 172.026 103.544C172.867 103.788 173.674 104.139 174.426 104.588C175.195 105.019 175.906 105.545 176.544 106.154Z" fill="#263238"/>
<path d="M175.2 111.53C173.483 111.93 171.697 111.93 169.98 111.53C171.697 111.13 173.483 111.13 175.2 111.53Z" fill="#263238"/>
<path d="M176.76 116.846C176.124 117.454 175.414 117.98 174.648 118.412C173.896 118.861 173.089 119.211 172.248 119.456C172.881 118.845 173.591 118.319 174.36 117.89C175.111 117.439 175.918 117.088 176.76 116.846Z" fill="#263238"/>
<path d="M180.744 120.68C180.233 122.368 179.34 123.917 178.134 125.204C178.378 124.362 178.731 123.555 179.184 122.804C179.612 122.033 180.136 121.319 180.744 120.68Z" fill="#263238"/>
<path d="M186.12 122.006C186.329 122.86 186.43 123.737 186.42 124.616C186.433 125.495 186.332 126.372 186.12 127.226C185.905 126.373 185.804 125.495 185.82 124.616C185.81 123.737 185.911 122.86 186.12 122.006Z" fill="#263238"/>
<path d="M191.436 120.5C192.047 121.134 192.573 121.843 193.002 122.612C193.453 123.363 193.804 124.17 194.046 125.012C192.84 123.725 191.947 122.177 191.436 120.488V120.5Z" fill="#263238"/>
<path d="M195.27 116.48C196.112 116.722 196.919 117.073 197.67 117.524C198.439 117.953 199.149 118.479 199.782 119.09C198.94 118.848 198.133 118.497 197.382 118.046C196.613 117.617 195.904 117.091 195.27 116.48Z" fill="#263238"/>
<path d="M196.596 111.104C198.315 110.704 200.103 110.704 201.822 111.104C200.103 111.504 198.315 111.504 196.596 111.104Z" fill="#263238"/>
<path d="M195.06 105.788C195.695 105.181 196.405 104.657 197.172 104.228C197.922 103.773 198.729 103.42 199.572 103.178C198.285 104.384 196.737 105.277 195.048 105.788H195.06Z" fill="#263238"/>
<path d="M191.07 101.954C191.317 101.114 191.668 100.307 192.114 99.5539C192.543 98.7853 193.069 98.0754 193.68 97.4419C193.438 98.2839 193.087 99.0907 192.636 99.8419C192.207 100.611 191.681 101.32 191.07 101.954Z" fill="#263238"/>
<path d="M345.522 259.73H162.324L136.308 115.262H319.512L345.522 259.73Z" fill="#007DFC"/>
<path d="M199.794 203.576C203.999 203.576 207.408 200.167 207.408 195.962C207.408 191.757 203.999 188.348 199.794 188.348C195.589 188.348 192.18 191.757 192.18 195.962C192.18 200.167 195.589 203.576 199.794 203.576Z" fill="white"/>
<path d="M259.986 203.576C264.191 203.576 267.6 200.167 267.6 195.962C267.6 191.757 264.191 188.348 259.986 188.348C255.781 188.348 252.372 191.757 252.372 195.962C252.372 200.167 255.781 203.576 259.986 203.576Z" fill="white"/>
<path d="M240.828 204.794L240.408 203.996C240.372 203.924 236.436 196.652 228.522 196.652C221.322 196.652 219.522 203.498 219.474 203.792L219.258 204.662L217.512 204.242L217.722 203.366C217.722 203.282 219.87 194.852 228.522 194.852C237.522 194.852 241.824 202.82 242.004 203.162L242.424 203.954L240.828 204.794Z" fill="white"/>
<path d="M333.426 195.38L333.3 194.78C333.69 194.696 334.074 194.606 334.458 194.504L334.608 195.104C334.2 195.206 333.822 195.296 333.426 195.38Z" fill="#263238"/>
<path d="M336.93 194.414L336.738 193.85C337.488 193.592 338.238 193.31 338.964 193.004L339.198 193.556C338.46 193.868 337.698 194.156 336.93 194.414ZM341.4 192.5L341.13 191.972C341.832 191.606 342.534 191.21 343.2 190.772L343.512 191.282C342.828 191.756 342.114 192.158 341.4 192.5ZM345.528 189.962L345.174 189.476C345.822 189.002 346.446 188.504 347.034 187.994L347.43 188.444C346.8 188.99 346.2 189.5 345.522 189.986L345.528 189.962ZM349.188 186.77L348.75 186.356C349.302 185.756 349.824 185.156 350.304 184.556L350.778 184.922C350.28 185.582 349.746 186.2 349.2 186.794L349.188 186.77ZM352.158 182.93L351.648 182.612C352.063 181.942 352.432 181.244 352.752 180.524L353.304 180.77C352.965 181.521 352.58 182.25 352.152 182.954L352.158 182.93ZM354.144 178.478L353.544 178.31C353.763 177.557 353.926 176.789 354.03 176.012L354.63 176.09C354.531 176.906 354.366 177.712 354.138 178.502L354.144 178.478ZM354.81 173.678H354.21V173.504C354.21 172.778 354.168 172.04 354.096 171.314L354.696 171.254C354.775 172.001 354.815 172.752 354.816 173.504L354.81 173.678ZM353.73 168.98C353.569 168.206 353.368 167.441 353.13 166.688L353.73 166.508C353.976 167.288 354.186 168.08 354.33 168.854L353.73 168.98ZM352.308 164.462C352.02 163.754 351.708 163.028 351.324 162.296L351.864 162.026C352.23 162.77 352.566 163.514 352.86 164.234L352.308 164.462ZM350.208 160.184C349.836 159.53 349.428 158.84 349.008 158.132L349.518 157.814C349.956 158.528 350.37 159.224 350.718 159.89L350.208 160.184ZM347.7 156.11C347.262 155.45 346.818 154.784 346.362 154.118L346.86 153.782C347.316 154.448 347.76 155.114 348.198 155.786L347.7 156.11ZM345 152.138C344.55 151.478 344.094 150.812 343.65 150.152L344.148 149.816C344.592 150.476 345.042 151.142 345.492 151.796L345 152.138ZM342.318 148.142C341.88 147.47 341.454 146.786 341.034 146.102L341.544 145.79C341.964 146.474 342.39 147.146 342.822 147.818L342.318 148.142ZM339.816 144.02C339.408 143.294 339.03 142.574 338.688 141.884L339.228 141.614C339.564 142.298 339.942 143.006 340.338 143.726L339.816 144.02ZM337.686 139.7C337.368 138.95 337.086 138.188 336.822 137.444L337.422 137.252C337.674 137.978 337.956 138.728 338.268 139.466L337.686 139.7ZM336.126 135.122C335.928 134.342 335.754 133.544 335.622 132.722L336.222 132.626C336.354 133.394 336.516 134.174 336.714 134.942L336.126 135.122ZM335.322 130.322C335.262 129.584 335.232 128.84 335.232 128.096V127.898H335.832V128.09C335.832 128.816 335.832 129.548 335.922 130.268L335.322 130.322ZM335.922 125.522L335.322 125.462C335.322 125.3 335.352 125.132 335.37 124.958C335.442 124.316 335.532 123.674 335.64 123.062L336.24 123.164C336.138 123.764 336.048 124.394 335.976 125.024C336 125.21 336 125.372 335.952 125.54L335.922 125.522ZM336.756 120.854L336.156 120.692C336.378 119.9 336.636 119.126 336.924 118.388L337.482 118.604C337.209 119.347 336.977 120.104 336.786 120.872L336.756 120.854ZM366.654 117.356C366.318 117.356 365.97 117.308 365.628 117.26C365.16 117.194 364.692 117.116 364.23 117.026L364.35 116.426C364.794 116.51 365.256 116.588 365.712 116.654C366.036 116.696 366.366 116.726 366.684 116.744L366.654 117.356ZM369.12 117.17L368.994 116.57C369.747 116.414 370.469 116.135 371.13 115.742L371.442 116.252C370.735 116.689 369.961 117.006 369.15 117.188L369.12 117.17ZM338.484 116.456L337.95 116.174C338.332 115.458 338.755 114.765 339.216 114.098L339.708 114.44C339.27 115.093 338.871 115.773 338.514 116.474L338.484 116.456ZM361.884 116.42C361.11 116.174 360.348 115.888 359.604 115.562L359.85 115.01C360.571 115.33 361.311 115.609 362.064 115.844L361.884 116.42ZM373.284 114.548L372.786 114.212C373.213 113.592 373.466 112.869 373.518 112.118L374.118 112.16C374.067 113.021 373.785 113.852 373.302 114.566L373.284 114.548ZM357.444 114.458C356.742 114.05 356.063 113.603 355.41 113.12L355.764 112.64C356.399 113.109 357.06 113.541 357.744 113.936L357.444 114.458ZM341.184 112.586L340.74 112.184C341.283 111.58 341.862 111.009 342.474 110.474L342.87 110.924C342.281 111.451 341.724 112.012 341.202 112.604L341.184 112.586ZM353.538 111.572C352.941 111.021 352.374 110.439 351.84 109.826L352.29 109.43C352.809 110.025 353.36 110.592 353.94 111.128L353.538 111.572ZM373.068 109.946C372.724 109.26 372.249 108.649 371.67 108.146L372.066 107.696C372.704 108.247 373.227 108.918 373.608 109.67L373.068 109.946ZM344.736 109.472L344.394 108.98C345.065 108.522 345.76 108.099 346.476 107.714L346.758 108.242C346.069 108.623 345.4 109.039 344.754 109.49L344.736 109.472ZM350.34 107.912C350.112 107.588 349.89 107.258 349.68 106.916L348.9 107.222L348.672 106.67L349.362 106.394C349.254 106.214 349.146 106.034 349.044 105.854L349.566 105.56C349.686 105.77 349.806 105.98 349.932 106.16C350.268 106.04 350.61 105.926 350.958 105.818L351.132 106.418C350.838 106.508 350.532 106.604 350.256 106.706C350.442 107 350.634 107.306 350.856 107.564L350.34 107.912ZM369.738 106.88C369.158 106.591 368.556 106.346 367.938 106.148L367.542 106.022L367.716 105.422L368.124 105.554C368.767 105.759 369.393 106.014 369.996 106.316L369.738 106.88ZM353.43 105.806L353.304 105.206C354.078 105.032 354.882 104.888 355.704 104.774L355.794 105.374C355.002 105.5 354.216 105.65 353.448 105.824L353.43 105.806ZM365.25 105.482C364.5 105.35 363.708 105.248 362.898 105.176L362.946 104.576C363.78 104.648 364.59 104.75 365.346 104.888L365.25 105.482ZM358.14 105.134L358.098 104.534C358.812 104.492 359.526 104.468 360.234 104.468H360.528V105.068H360.24C359.562 105.086 358.854 105.104 358.158 105.152L358.14 105.134ZM348 103.7C347.676 102.968 347.4 102.206 347.13 101.432L347.73 101.246C347.982 102.002 348.264 102.746 348.576 103.46L348 103.7ZM346.482 99.092C346.302 98.318 346.152 97.514 346.038 96.692L346.638 96.608C346.752 97.4 346.896 98.186 347.07 98.948L346.482 99.092ZM345.81 94.292C345.78 93.752 345.762 93.2 345.762 92.648C345.762 92.39 345.762 92.126 345.762 91.868H346.362C346.362 92.126 346.362 92.378 346.362 92.636C346.362 93.176 346.362 93.722 346.404 94.244L345.81 94.292ZM346.524 89.492L345.924 89.432C346.008 88.64 346.122 87.83 346.26 87.032L346.86 87.134C346.698 87.932 346.584 88.7 346.506 89.504L346.524 89.492ZM347.346 84.806L346.746 84.662C346.938 83.888 347.16 83.108 347.406 82.328L348.006 82.514C347.736 83.3 347.514 84.062 347.328 84.818L347.346 84.806ZM348.786 80.264L348.228 80.048C348.522 79.298 348.828 78.548 349.194 77.822L349.734 78.086C349.374 78.806 349.056 79.538 348.768 80.3L348.786 80.264ZM350.85 75.986L350.328 75.68C350.736 74.99 351.174 74.3 351.63 73.64L352.122 73.982C351.654 74.642 351.228 75.314 350.832 75.998L350.85 75.986ZM353.556 72.08L353.088 71.702C353.592 71.102 354.132 70.466 354.69 69.902L355.122 70.316C354.558 70.88 354.03 71.48 353.538 72.092L353.556 72.08ZM356.82 68.624L356.418 68.18C357.018 67.646 357.618 67.118 358.26 66.608L358.632 67.082C357.99 67.592 357.378 68.114 356.802 68.636L356.82 68.624ZM360.546 65.66L360.204 65.162C360.858 64.712 361.542 64.268 362.238 63.848L362.544 64.358C361.848 64.784 361.2 65.222 360.528 65.672L360.546 65.66ZM364.62 63.182L364.338 62.654C365.046 62.276 365.778 61.916 366.51 61.58L366.762 62.126C366 62.468 365.298 62.828 364.602 63.194L364.62 63.182ZM368.958 61.19L368.736 60.626C369.492 60.332 370.254 60.026 371.01 59.804L371.202 60.404C370.44 60.632 369.684 60.908 368.94 61.202L368.958 61.19Z" fill="#263238"/>
<path d="M373.584 59.6719L373.434 59.0719C374.178 58.8799 374.634 58.7959 374.634 58.7959L374.742 59.3959C374.742 59.3959 374.31 59.4859 373.584 59.6719Z" fill="#263238"/>
<path d="M384.192 55.7958C382.662 51.0558 372.414 52.7598 374.412 58.9578C376.41 65.1558 385.722 60.5418 384.192 55.7958Z" fill="#263238"/>
<path d="M368.838 53.8999C368.916 51.8179 371.808 50.2159 375.9 50.9539C379.992 51.6919 383.838 54.4519 383.838 54.4519C383.838 54.4519 379.8 56.8999 375.666 57.3499C371.532 57.7999 368.76 55.9759 368.838 53.8999Z" fill="#EBEBEB"/>
<path d="M383.838 54.4399C381.714 54.4399 379.596 54.3799 377.478 54.3139C375.36 54.2479 373.236 54.1399 371.118 53.9719C373.242 53.9719 375.366 54.0259 377.484 54.0919C379.602 54.1579 381.726 54.2659 383.838 54.4399Z" fill="#263238"/>
<path d="M372.948 52.0459C374.154 52.6227 375.291 53.3332 376.338 54.1639C375.735 53.8807 375.15 53.5601 374.586 53.2039C374.018 52.8501 373.471 52.4635 372.948 52.0459Z" fill="#263238"/>
<path d="M378.51 54.2419C377.425 55.1216 376.248 55.882 375 56.5099C376.091 55.6292 377.274 54.8688 378.528 54.2419H378.51Z" fill="#263238"/>
<path d="M379.128 53.0718C379.734 53.3625 380.263 53.7897 380.676 54.3198C380.373 54.1769 380.089 53.9976 379.83 53.7858C379.57 53.5753 379.334 53.3358 379.128 53.0718Z" fill="#263238"/>
<path d="M372.738 66.2298C374.016 67.8738 377.298 67.4778 380.184 64.4898C383.07 61.5018 384.6 57.0078 384.6 57.0078C384.6 57.0078 379.872 57.3678 376.266 59.4078C372.66 61.4478 371.454 64.5798 372.738 66.2298Z" fill="#EBEBEB"/>
<path d="M384.6 57.0078C382.872 58.2078 381.192 59.5398 379.506 60.8298C377.82 62.1198 376.17 63.4518 374.556 64.8258C376.284 63.6258 377.964 62.2998 379.644 61.0098C381.324 59.7198 382.962 58.3878 384.6 57.0078Z" fill="#263238"/>
<path d="M377.148 65.3C377.469 64.7172 377.755 64.1162 378.006 63.5C378.261 62.8821 378.478 62.2489 378.654 61.604C378.332 62.1863 378.046 62.7874 377.796 63.404C377.543 64.0228 377.327 64.6559 377.148 65.3Z" fill="#263238"/>
<path d="M380.4 60.2839C378.996 60.2088 377.588 60.2833 376.2 60.5059C376.899 60.5479 377.601 60.5479 378.3 60.5059C379.004 60.4716 379.705 60.3975 380.4 60.2839Z" fill="#263238"/>
<path d="M381.558 60.8779C381.718 60.5816 381.843 60.2674 381.93 59.9419C382.019 59.6188 382.071 59.2867 382.086 58.9519C381.767 59.5459 381.587 60.2043 381.558 60.8779Z" fill="#263238"/>
<path d="M384.192 55.7959C383.853 55.906 383.489 55.913 383.147 55.8161C382.804 55.7191 382.497 55.5227 382.266 55.2515C382.035 54.9804 381.89 54.6467 381.848 54.2929C381.807 53.939 381.872 53.5808 382.034 53.2637C382.196 52.9466 382.449 52.6847 382.76 52.5114C383.072 52.338 383.427 52.2609 383.782 52.2899C384.137 52.3188 384.476 52.4525 384.755 52.6739C385.034 52.8954 385.241 53.1947 385.35 53.5339C385.496 53.9875 385.455 54.4802 385.238 54.9042C385.021 55.3282 384.645 55.6488 384.192 55.7959Z" fill="#455A64"/>
<path d="M385.296 59.2218C384.957 59.3314 384.594 59.3381 384.251 59.2411C383.909 59.1441 383.603 58.9477 383.372 58.6768C383.141 58.4059 382.996 58.0727 382.954 57.7191C382.913 57.3656 382.977 57.0077 383.139 56.6907C383.301 56.3737 383.553 56.1118 383.864 55.9381C384.174 55.7644 384.529 55.6867 384.884 55.7149C385.239 55.743 385.578 55.8758 385.857 56.0963C386.136 56.3168 386.344 56.6152 386.454 56.9538C386.527 57.1788 386.555 57.4159 386.536 57.6516C386.518 57.8874 386.453 58.1171 386.345 58.3278C386.237 58.5384 386.09 58.7257 385.91 58.8792C385.73 59.0326 385.521 59.149 385.296 59.2218Z" fill="#455A64"/>
<path d="M188.586 57.6921C188.298 60.448 187.251 63.0698 185.56 65.2649C183.869 67.4601 181.602 69.1422 179.01 70.1235C176.419 71.1049 173.606 71.3469 170.885 70.8226C168.165 70.2982 165.643 69.0282 163.602 67.1541L156.12 68.2521L159.864 61.7841C159.008 59.6796 158.643 57.4076 158.796 55.1407C158.949 52.8738 159.617 50.6717 160.749 48.7016C161.881 46.7315 163.447 45.0452 165.328 43.7709C167.209 42.4966 169.356 41.6677 171.605 41.3472C173.854 41.0268 176.147 41.2231 178.309 41.9214C180.471 42.6197 182.446 43.8016 184.083 45.3772C185.72 46.9529 186.976 48.8808 187.756 51.0147C188.537 53.1486 188.82 55.4322 188.586 57.6921Z" fill="white"/>
<path d="M188.586 57.6921C188.305 60.4466 187.266 63.0694 185.586 65.2701C184.765 66.3831 183.775 67.361 182.652 68.1681C181.553 69.0055 180.341 69.6823 179.052 70.1781C177.762 70.6861 176.407 71.0093 175.026 71.1381C174.336 71.2 173.642 71.2141 172.95 71.1801C172.255 71.1623 171.563 71.09 170.88 70.9641C168.123 70.4568 165.561 69.1915 163.482 67.3101L163.656 67.3641L156.186 68.5101L155.64 68.5941L155.916 68.1141L159.636 61.6341V61.8921C158.758 59.7487 158.385 57.4321 158.545 55.1214C158.705 52.8108 159.395 50.5679 160.56 48.5661C161.724 46.5706 163.324 44.8641 165.24 43.5741C167.153 42.3012 169.33 41.4781 171.607 41.1664C173.883 40.8546 176.201 41.0624 178.386 41.7741C180.548 42.5096 182.518 43.7191 184.152 45.3141C185.783 46.9051 187.029 48.8467 187.798 50.9914C188.566 53.1361 188.835 55.4276 188.586 57.6921ZM188.586 57.6921C188.828 55.4388 188.55 53.1599 187.772 51.0314C186.993 48.9028 185.737 46.9816 184.098 45.416C182.459 43.8504 180.483 42.6824 178.321 42.002C176.159 41.3217 173.87 41.1472 171.63 41.4921C169.413 41.8203 167.3 42.6538 165.456 43.9281C163.628 45.2124 162.1 46.8789 160.98 48.8121C159.877 50.7496 159.227 52.9116 159.078 55.1361C158.932 57.3757 159.293 59.6194 160.134 61.7001L160.188 61.8321L160.116 61.9581L156.348 68.4141L156.084 68.0181L163.572 66.9681H163.674L163.746 67.0341C165.748 68.8971 168.228 70.1665 170.91 70.7001C171.578 70.8363 172.257 70.9185 172.938 70.9461C173.619 70.9941 174.303 70.9941 174.984 70.9461C176.35 70.836 177.695 70.5393 178.98 70.0641C180.268 69.595 181.481 68.9401 182.58 68.1201C183.698 67.3195 184.69 66.3546 185.52 65.2581C187.222 63.0681 188.283 60.4491 188.586 57.6921Z" fill="#263238"/>
<path d="M166.404 63.1102C166.392 62.9115 166.422 62.7126 166.49 62.5258C166.559 62.339 166.665 62.1683 166.802 62.0243C166.94 61.8803 167.105 61.766 167.288 61.6885C167.472 61.6111 167.669 61.5722 167.868 61.5742C168.275 61.5742 168.666 61.736 168.954 62.024C169.242 62.3121 169.404 62.7028 169.404 63.1102C169.404 63.5175 169.242 63.9082 168.954 64.1963C168.666 64.4843 168.275 64.6462 167.868 64.6462C167.669 64.6481 167.472 64.6092 167.288 64.5318C167.105 64.4543 166.94 64.34 166.802 64.196C166.665 64.052 166.559 63.8813 166.49 63.6945C166.422 63.5077 166.392 63.3088 166.404 63.1102ZM167.004 59.5642L166.656 47.6602H169.056L168.708 59.5642H167.004Z" fill="#007DFC"/>
<path d="M172.11 63.1102C172.099 62.912 172.128 62.7136 172.196 62.5273C172.264 62.3409 172.37 62.1704 172.506 62.0265C172.643 61.8826 172.808 61.7682 172.99 61.6904C173.173 61.6125 173.37 61.573 173.568 61.5742C173.975 61.5742 174.366 61.736 174.654 62.024C174.942 62.3121 175.104 62.7028 175.104 63.1102C175.104 63.5175 174.942 63.9082 174.654 64.1963C174.366 64.4843 173.975 64.6462 173.568 64.6462C173.37 64.6473 173.173 64.6078 172.99 64.53C172.808 64.4522 172.643 64.3378 172.506 64.1938C172.37 64.0499 172.264 63.8794 172.196 63.6931C172.128 63.5067 172.099 63.3083 172.11 63.1102ZM172.71 59.5642L172.38 47.6602H174.78L174.432 59.5642H172.71Z" fill="#007DFC"/>
<path d="M177.81 63.1102C177.798 62.9115 177.828 62.7126 177.896 62.5258C177.965 62.339 178.071 62.1683 178.209 62.0243C178.346 61.8803 178.511 61.766 178.694 61.6885C178.878 61.6111 179.075 61.5722 179.274 61.5742C179.681 61.5742 180.072 61.736 180.36 62.024C180.648 62.3121 180.81 62.7028 180.81 63.1102C180.81 63.5175 180.648 63.9082 180.36 64.1963C180.072 64.4843 179.681 64.6462 179.274 64.6462C179.075 64.6481 178.878 64.6092 178.694 64.5318C178.511 64.4543 178.346 64.34 178.209 64.196C178.071 64.052 177.965 63.8813 177.896 63.6945C177.828 63.5077 177.798 63.3088 177.81 63.1102ZM178.41 59.5642L178.062 47.6602H180.462L180.12 59.5642H178.41Z" fill="#007DFC"/>
</svg>
